<?xml version="1.0" encoding="UTF-8" standalone="no"?>
<!-- Created with Inkscape (http://www.inkscape.org/) -->

<svg
   width="128"
   height="128"
   viewBox="0 0 33.866666 33.866666"
   version="1.1"
   id="svg1"
   inkscape:version="1.3.2 (091e20e, 2023-11-25, custom)"
   sodipodi:docname="nemonuri_icon.svg"
   inkscape:export-filename="nemonuri_icon.png"
   inkscape:export-xdpi="96"
   inkscape:export-ydpi="96"
   xmlns:inkscape="http://www.inkscape.org/namespaces/inkscape"
   xmlns:sodipodi="http://sodipodi.sourceforge.net/DTD/sodipodi-0.dtd"
   xmlns="http://www.w3.org/2000/svg"
   xmlns:svg="http://www.w3.org/2000/svg"
   xmlns:rdf="http://www.w3.org/1999/02/22-rdf-syntax-ns#"
   xmlns:cc="http://creativecommons.org/ns#"
   xmlns:dc="http://purl.org/dc/elements/1.1/">
  <sodipodi:namedview
     id="namedview1"
     pagecolor="#ffffff"
     bordercolor="#000000"
     borderopacity="0.25"
     inkscape:showpageshadow="2"
     inkscape:pageopacity="0.0"
     inkscape:pagecheckerboard="0"
     inkscape:deskcolor="#d1d1d1"
     inkscape:document-units="px"
     inkscape:zoom="2"
     inkscape:cx="-101"
     inkscape:cy="5.7499999"
     inkscape:window-width="1920"
     inkscape:window-height="1027"
     inkscape:window-x="-8"
     inkscape:window-y="-8"
     inkscape:window-maximized="1"
     inkscape:current-layer="layer5" />
  <defs
     id="defs1">
    <inkscape:path-effect
       effect="bspline"
       id="path-effect15"
       is_visible="true"
       lpeversion="1.3"
       weight="33.333333"
       steps="2"
       helper_size="0"
       apply_no_weight="true"
       apply_with_weight="true"
       only_selected="false"
       uniform="false" />
    <inkscape:path-effect
       effect="bspline"
       id="path-effect14"
       is_visible="true"
       lpeversion="1.3"
       weight="33.333333"
       steps="2"
       helper_size="0"
       apply_no_weight="true"
       apply_with_weight="true"
       only_selected="false"
       uniform="false" />
    <inkscape:path-effect
       effect="bspline"
       id="path-effect12"
       is_visible="true"
       lpeversion="1.3"
       weight="33.333333"
       steps="2"
       helper_size="0"
       apply_no_weight="true"
       apply_with_weight="true"
       only_selected="false"
       uniform="false" />
    <inkscape:path-effect
       effect="spiro"
       id="path-effect11"
       is_visible="true"
       lpeversion="1" />
    <inkscape:path-effect
       effect="simplify"
       id="path-effect10"
       is_visible="true"
       lpeversion="1.3"
       threshold="17.2414"
       steps="1"
       smooth_angles="360"
       helper_size="0"
       simplify_individual_paths="false"
       simplify_just_coalesce="false" />
    <inkscape:path-effect
       effect="simplify"
       id="path-effect9"
       is_visible="true"
       lpeversion="1.3"
       threshold="17.2414"
       steps="1"
       smooth_angles="360"
       helper_size="0"
       simplify_individual_paths="false"
       simplify_just_coalesce="false" />
    <inkscape:path-effect
       effect="simplify"
       id="path-effect8"
       is_visible="true"
       lpeversion="1.3"
       threshold="17.2414"
       steps="1"
       smooth_angles="360"
       helper_size="0"
       simplify_individual_paths="false"
       simplify_just_coalesce="false" />
    <inkscape:perspective
       sodipodi:type="inkscape:persp3d"
       inkscape:vp_x="0 : 16.933333 : 1"
       inkscape:vp_y="0 : 1000 : 0"
       inkscape:vp_z="33.866666 : 16.933333 : 1"
       inkscape:persp3d-origin="16.933333 : 11.288889 : 1"
       id="perspective39" />
    <inkscape:path-effect
       effect="bspline"
       id="path-effect7"
       is_visible="true"
       lpeversion="1.3"
       weight="33.333333"
       steps="2"
       helper_size="0"
       apply_no_weight="true"
       apply_with_weight="true"
       only_selected="false"
       uniform="false" />
    <inkscape:path-effect
       effect="bspline"
       id="path-effect6"
       is_visible="true"
       lpeversion="1.3"
       weight="33.333333"
       steps="2"
       helper_size="0"
       apply_no_weight="true"
       apply_with_weight="true"
       only_selected="false"
       uniform="false" />
    <inkscape:path-effect
       effect="bspline"
       id="path-effect5"
       is_visible="true"
       lpeversion="1.3"
       weight="33.333333"
       steps="2"
       helper_size="0"
       apply_no_weight="true"
       apply_with_weight="true"
       only_selected="false"
       uniform="false" />
    <inkscape:path-effect
       effect="bspline"
       id="path-effect4"
       is_visible="true"
       lpeversion="1.3"
       weight="33.333333"
       steps="2"
       helper_size="0"
       apply_no_weight="true"
       apply_with_weight="true"
       only_selected="false"
       uniform="false" />
    <inkscape:path-effect
       effect="bspline"
       id="path-effect3"
       is_visible="true"
       lpeversion="1.3"
       weight="33.333333"
       steps="2"
       helper_size="0"
       apply_no_weight="true"
       apply_with_weight="true"
       only_selected="false"
       uniform="false" />
    <inkscape:path-effect
       effect="spiro"
       id="path-effect2"
       is_visible="true"
       lpeversion="1" />
    <inkscape:path-effect
       effect="spiro"
       id="path-effect1"
       is_visible="true"
       lpeversion="1" />
    <inkscape:path-effect
       effect="bspline"
       id="path-effect12-0"
       is_visible="true"
       lpeversion="1.3"
       weight="33.333333"
       steps="2"
       helper_size="0"
       apply_no_weight="true"
       apply_with_weight="true"
       only_selected="false"
       uniform="false" />
    <inkscape:path-effect
       effect="bspline"
       id="path-effect12-8"
       is_visible="true"
       lpeversion="1.3"
       weight="33.333333"
       steps="2"
       helper_size="0"
       apply_no_weight="true"
       apply_with_weight="true"
       only_selected="false"
       uniform="false" />
  </defs>
  <g
     inkscape:label="Main body"
     inkscape:groupmode="layer"
     id="layer1"
     sodipodi:insensitive="true">
    <path
       style="fill:#000000;fill-opacity:1;stroke-width:0.264583"
       d="M 2.1066634,13.038193 C 11.157507,9.7958154 18.3076,7.6825734 27.79484,6.2922531 29.685128,12.263824 31.448328,18.36942 32.753774,24.34099 23.812381,28.081919 17.334874,29.810693 7.0209236,31.62303 5.3225278,25.479778 3.5114897,19.905355 2.1066634,13.038193 Z"
       id="path1"
       sodipodi:nodetypes="ccccc" />
  </g>
  <g
     inkscape:groupmode="layer"
     id="layer2"
     inkscape:label="Effect"
     sodipodi:insensitive="true">
    <path
       id="path44"
       style="stroke-width:0.219521;paint-order:stroke fill markers"
       d="m 4.161508,1.4838411 c -0.031471,0.00978 -0.016759,0.064257 -0.018211,0.097183 -0.00764,0.1732018 0.029898,0.3455091 0.05041,0.5176615 0.05357,0.4496111 0.1039102,0.9004721 0.1896924,1.3450629 0.048889,0.2533847 0.1183512,0.5024395 0.1848547,0.751781 0.041905,0.157115 0.086767,0.3134789 0.1349005,0.4687987 0.082307,0.2655862 0.1656944,0.5311349 0.2630727,0.7915731 0.1096444,0.2932297 0.2378154,0.5792216 0.3611939,0.8669426 0.1009868,0.2355101 0.2012847,0.4714341 0.3102522,0.7033599 0.077341,0.164616 0.1621411,0.3256239 0.2437129,0.4881849 0.041875,0.083439 0.079127,0.1693983 0.12612,0.250062 0.059522,0.1021588 0.1347228,0.1944763 0.1967568,0.2951301 0.046918,0.076127 0.086547,0.1565519 0.1325189,0.2332535 0.069469,0.1159061 0.1402373,0.2311812 0.2164476,0.3427704 0.053784,0.078751 0.1065851,0.158846 0.1697406,0.2303012 0.046304,0.052388 0.1000475,0.097768 0.1522819,0.1442445 0.027206,0.024206 0.055009,0.047792 0.083841,0.07004 0.031412,0.02424 0.059991,0.08337 0.096984,0.069018 0.037385,-0.014502 0.020307,-0.077816 0.025339,-0.1175968 0.00468,-0.037006 9.479e-4,-0.074677 0.00441,-0.1118179 0.00671,-0.071826 0.029158,-0.1419945 0.031626,-0.2140881 C 7.1207285,8.6100545 7.1060896,8.5145272 7.0950143,8.4194622 7.0793617,8.284989 7.0569241,8.1513263 7.0328604,8.0180991 7.0169523,7.930024 6.9932946,7.8434256 6.9785331,7.7551505 6.9589855,7.6382557 6.9557194,7.5188605 6.9332706,7.4024874 6.9155786,7.3107694 6.8866027,7.2215927 6.8630001,7.1312152 6.8170167,6.9551392 6.7748188,6.7780041 6.7240068,6.6032603 6.6524507,6.3571771 6.5709309,6.114079 6.4905499,5.8707354 6.3923529,5.5734591 6.2992838,5.2741456 6.1866001,4.9820529 6.0865158,4.7226195 5.9720602,4.468855 5.8565068,4.2159323 5.7889077,4.0679723 5.7178443,3.921565 5.6441139,3.7765627 5.5270651,3.5463683 5.4119684,3.3146508 5.2791424,3.0931851 5.0476071,2.707138 4.78186,2.3426314 4.5278451,1.9709898 4.4684058,1.8840262 4.40859,1.7972986 4.3470289,1.7118238 4.3065647,1.6556418 4.2684457,1.5974577 4.2231223,1.5451165 4.2041565,1.5232208 4.1891661,1.4752419 4.161508,1.4838411 Z"
       sodipodi:nodetypes="aaaaaaaaaaaaaaaaaaaaaaaaaaaaaaaaaaaa" />
    <path
       id="path44-2"
       style="stroke-width:0.157333;paint-order:stroke fill markers"
       d="m 0.69240671,5.6113576 c -0.0184301,0.011884 0.0045,0.048895 0.0115221,0.072853 0.0369357,0.1260265 0.10351395,0.2444647 0.15880224,0.3654079 0.14439425,0.3158689 0.28695685,0.6331351 0.45142345,0.9404342 0.093734,0.1751384 0.2000152,0.343994 0.3044106,0.5135105 0.065782,0.106816 0.1333351,0.2126361 0.2027979,0.3172009 0.1187786,0.1787976 0.2382613,0.3574025 0.3657524,0.5301732 0.1435488,0.1945218 0.2975837,0.3809818 0.448872,0.5694236 0.1238366,0.1542442 0.2473117,0.3088976 0.375551,0.4593338 0.091021,0.1067764 0.1860951,0.2098066 0.2794132,0.314452 0.047902,0.053712 0.093359,0.10995 0.1439721,0.1608735 0.064103,0.064493 0.1361833,0.1194825 0.2015822,0.1825048 0.049462,0.04767 0.09515,0.09955 0.1441259,0.147774 0.07401,0.07287 0.1487249,0.145094 0.2261438,0.213821 0.054636,0.04851 0.1089491,0.09812 0.1680108,0.139925 0.043299,0.03065 0.089824,0.0551 0.1356118,0.08057 0.023852,0.01327 0.047941,0.02599 0.072391,0.03761 0.026634,0.01264 0.059861,0.05088 0.080826,0.03484 0.021196,-0.0162 -0.00544,-0.05921 -0.011762,-0.08866 -0.00587,-0.0274 -0.017477,-0.05398 -0.024195,-0.08128 C 4.4146737,10.469318 4.412515,10.41529 4.3966688,10.362938 4.3756601,10.29348 4.3428143,10.226872 4.3124467,10.160047 4.2695061,10.065518 4.2222745,9.9726164 4.1740776,9.8802765 4.142212,9.8192334 4.1055831,9.7604447 4.0744295,9.6990802 4.0331721,9.6178212 4.0020753,9.5322565 3.9590283,9.4518193 3.9251046,9.3884247 3.88434,9.3285928 3.8468323,9.2670717 3.7737602,9.1472139 3.7029322,9.0260114 3.6269906,8.9078566 3.5200455,8.7414653 3.4072394,8.5787566 3.2951255,8.4156964 3.1581638,8.2164996 3.0240971,8.0150435 2.878817,7.8218069 2.7497812,7.6501764 2.6126211,7.484841 2.4749396,7.3202812 2.3943956,7.2240136 2.3119384,7.1293976 2.2280591,7.0362044 2.0948986,6.8882582 1.9626593,6.7389139 1.8211875,6.5996843 1.5745811,6.356987 1.3105851,6.1350751 1.0526137,5.9062167 0.9922485,5.8526642 0.93169185,5.7993396 0.87028538,5.7471864 0.82992294,5.7129066 0.7906251,5.6768231 0.74798218,5.6460586 0.73013876,5.6331904 0.70860519,5.6009065 0.69240671,5.6113576 Z"
       sodipodi:nodetypes="aaaaaaaaaaaaaaaaaaaaaaaaaaaaaaaaaaaa" />
    <path
       id="path44-2-9"
       style="stroke-width:0.170242;paint-order:stroke fill markers"
       d="m 10.784417,2.0488451 c 0.02368,0.00162 0.02128,0.048678 0.02716,0.075047 0.03086,0.1387125 0.02968,0.2857231 0.0405,0.4292079 0.02826,0.3747401 0.05899,0.7498471 0.06377,1.1269578 0.0027,0.2149236 -0.0097,0.4304559 -0.02006,0.6456266 -0.0065,0.1355828 -0.0152,0.2711498 -0.02637,0.4065244 -0.0191,0.2314816 -0.03896,0.4631484 -0.06947,0.6934724 -0.03436,0.2593243 -0.08285,0.5164909 -0.127711,0.7741 -0.03672,0.2108606 -0.07289,0.4219201 -0.115774,0.6314743 -0.03044,0.1487365 -0.06668,0.2960415 -0.100404,0.4439594 -0.01731,0.075925 -0.03099,0.1529652 -0.05234,0.227665 -0.02703,0.094607 -0.06659,0.1843774 -0.09562,0.2782673 -0.02196,0.071011 -0.03813,0.1440466 -0.05933,0.2153341 -0.03204,0.1077246 -0.06508,0.2151983 -0.102524,0.3207748 -0.02642,0.074513 -0.05195,0.1499069 -0.08605,0.2203795 -0.02501,0.051669 -0.05631,0.099146 -0.08638,0.1472102 -0.015668,0.025037 -0.031845,0.049679 -0.04893,0.073466 C 9.906262,8.7842048 9.89476,8.8378028 9.866507,8.8335638 9.837952,8.8292938 9.840679,8.7746418 9.831319,8.7434148 9.822559,8.7143708 9.819671,8.6831348 9.811771,8.6537568 9.7964665,8.596935 9.7702777,8.5446159 9.7579261,8.4867353 9.7415338,8.4099465 9.737839,8.3296743 9.7316906,8.2504874 9.722975,8.1384805 9.7191755,8.0257752 9.7165834,7.9130972 c -0.00171,-0.074489 0.00227,-0.1493334 -2.803e-4,-0.2237563 -0.00338,-0.098552 -0.01863,-0.1958744 -0.019881,-0.2945835 -9.885e-4,-0.077794 0.00636,-0.1557869 0.00975,-0.2336787 0.0066,-0.1517506 0.010366,-0.3036025 0.020567,-0.4552392 0.014371,-0.2135423 0.036219,-0.4266584 0.057227,-0.6397459 0.025666,-0.2603117 0.047409,-0.5212513 0.084071,-0.780263 0.032559,-0.2300507 0.076111,-0.4583837 0.1205628,-0.6862535 0.026001,-0.1333026 0.054687,-0.2660435 0.085449,-0.3981782 0.04884,-0.2097661 0.0961,-0.4203757 0.157373,-0.6262269 0.10682,-0.3588289 0.240975,-0.7070518 0.365794,-1.0587076 0.02921,-0.082284 0.05871,-0.1644583 0.08965,-0.2459642 0.02032,-0.053572 0.03871,-0.1082983 0.06303,-0.1597328 0.01017,-0.021515 0.01371,-0.06336 0.03452,-0.061919 z"
       sodipodi:nodetypes="aaaaaaaaaaaaaaaaaaaaaaaaaaaaaaaaaaaa" />
  </g>
  <g
     inkscape:groupmode="layer"
     id="layer3"
     inkscape:label="Eyes"
     sodipodi:insensitive="true">
    <path
       style="fill:#ffffff;stroke-width:0.264583"
       d="m 8.9568699,13.446998 c -0.2572471,0.148112 -0.5144938,0.296223 -0.6937863,0.409255 -0.1792925,0.113032 -0.2806342,0.190988 -0.3429976,0.249454 -0.062363,0.05847 -0.085746,0.09744 -0.194882,0.222165 -0.1091357,0.124727 -0.3040199,0.335202 -0.4170527,0.502802 -0.1130329,0.167601 -0.1442143,0.292327 -0.1598049,0.38977 -0.015591,0.09744 -0.015591,0.167599 -0.023386,0.226063 -0.0078,0.05846 -0.023385,0.105234 -0.031181,0.222167 -0.0078,0.116932 -0.0078,0.304021 -0.0078,0.60804 0,0.304019 0,0.724968 0.038977,1.040681 0.038977,0.315712 0.1169306,0.526187 0.1987818,0.724968 0.081851,0.198782 0.1675999,0.38587 0.276735,0.584652 0.1091351,0.198782 0.2416563,0.409257 0.4092566,0.580755 0.1676003,0.171498 0.3702796,0.304019 0.5417775,0.378075 0.1714979,0.07406 0.3118144,0.08965 0.4482333,0.105235 0.1364189,0.01559 0.2689399,0.03118 0.463824,0.03898 0.194884,0.0078 0.4521309,0.0078 0.6937871,-0.02339 0.241656,-0.03118 0.467722,-0.09354 0.62363,-0.132521 0.155908,-0.03898 0.241655,-0.05457 0.424846,-0.109133 0.183191,-0.05457 0.463824,-0.148111 0.643115,-0.226064 0.179292,-0.07795 0.25725,-0.140318 0.389771,-0.222169 0.132521,-0.08185 0.31961,-0.183191 0.459928,-0.276737 0.140318,-0.09354 0.233859,-0.179291 0.292326,-0.226065 0.05847,-0.04677 0.08185,-0.05457 0.109132,-0.07795 0.02729,-0.02339 0.05846,-0.06236 0.124724,-0.124725 0.06626,-0.06236 0.1676,-0.148113 0.226066,-0.210477 0.05846,-0.06236 0.07405,-0.101336 0.105233,-0.144211 0.03118,-0.04287 0.07795,-0.08965 0.136419,-0.37028 0.05847,-0.280635 0.128625,-0.795129 0.13642,-1.379781 0.0078,-0.584652 -0.04677,-1.239462 -0.08575,-1.578563 -0.03898,-0.3391 -0.06236,-0.36248 -0.07795,-0.389765 -0.01559,-0.02729 -0.02339,-0.05846 -0.07016,-0.140315 -0.04677,-0.08185 -0.132522,-0.214373 -0.183192,-0.300123 -0.05067,-0.08575 -0.06626,-0.124721 -0.155905,-0.233858 -0.08965,-0.109136 -0.253349,-0.28843 -0.639219,-0.424848 -0.38587,-0.136419 -0.993909,-0.229964 -1.410961,-0.276736 -0.417051,-0.04677 -0.643117,-0.04677 -0.884773,-0.01169 -0.241656,0.03508 -0.4989035,0.105238 -0.7054806,0.190987 -0.206577,0.08575 -0.3624843,0.187088 -0.4560289,0.241656 -0.093545,0.05457 -0.124725,0.06236 -0.1481107,0.08185 -0.023386,0.01949 -0.038975,0.05067 -0.070157,0.07406 -0.031183,0.02339 -0.077955,0.03898 -0.1091369,0.04677 -0.031182,0.0078 -0.046771,0.0078 -0.054567,0.01559 -0.0078,0.0078 -0.0078,0.02339 -0.01949,0.03508 -0.011694,0.01169 -0.035077,0.01949 -0.066259,0.03898 -0.031182,0.01949 -0.070159,0.05067 -0.1091355,0.08185"
       id="path11"
       inkscape:original-d="m 8.9568699,13.446998 c -0.257247,0.148112 -0.5144939,0.296223 -0.7717409,0.444335 -0.1013397,0.07795 -0.2026793,0.155908 -0.304019,0.233861 -0.023386,0.03898 -0.046772,0.07795 -0.070158,0.116931 -0.1948841,0.210474 -0.389768,0.420949 -0.5846522,0.631424 -0.031181,0.124726 -0.062363,0.249452 -0.093544,0.374177 0,0.07016 0,0.140317 0,0.210475 -0.015592,0.04677 -0.031181,0.09354 -0.046772,0.140316 0,0.187089 0,0.374178 0,0.561267 0,0.420949 0,0.841898 0,1.262848 0.077954,0.210475 0.1559073,0.42095 0.2338609,0.631424 0.085749,0.187089 0.1714979,0.374177 0.2572467,0.561266 0.1325214,0.210475 0.2650424,0.42095 0.3975635,0.631425 0.2026795,0.132521 0.4053588,0.265042 0.6080381,0.397563 0.1403165,0.01559 0.280633,0.03118 0.4209497,0.04677 0.1325211,0.01559 0.2650421,0.03118 0.3975632,0.04677 0.257247,0 0.5144939,0 0.7717411,0 0.226066,-0.06236 0.452131,-0.124726 0.678197,-0.187088 0.08575,-0.01559 0.171497,-0.03118 0.257247,-0.04677 0.280633,-0.09354 0.561265,-0.187088 0.841898,-0.280633 0.07795,-0.06236 0.155908,-0.124725 0.233861,-0.187088 0.187089,-0.10134 0.374178,-0.20268 0.561266,-0.304019 0.09355,-0.08575 0.187089,-0.171498 0.280633,-0.257247 0.02339,-0.0078 0.04677,-0.01559 0.07016,-0.02339 0.03118,-0.03898 0.06236,-0.07795 0.09354,-0.11693 0.10134,-0.08575 0.202679,-0.171498 0.304019,-0.257247 0.01559,-0.03898 0.03118,-0.07795 0.04677,-0.116931 0.04677,-0.04677 0.09354,-0.09354 0.140317,-0.140316 0.07016,-0.514494 0.140316,-1.028988 0.210474,-1.543482 -0.05457,-0.65481 -0.109135,-1.30962 -0.163702,-1.964431 -0.02339,-0.02339 -0.04677,-0.04677 -0.07016,-0.07016 -0.0078,-0.03118 -0.01559,-0.06236 -0.02339,-0.09354 -0.08575,-0.132521 -0.171498,-0.265043 -0.257247,-0.397564 -0.01559,-0.03898 -0.03118,-0.07795 -0.04677,-0.11693 -0.163703,-0.179293 -0.327405,-0.358587 -0.491108,-0.53788 -0.608038,-0.09354 -1.216076,-0.187089 -1.824114,-0.280633 -0.226065,0 -0.452131,0 -0.678197,0 -0.257246,0.07016 -0.5144937,0.140316 -0.7717406,0.210475 -0.1559073,0.101339 -0.3118144,0.202679 -0.4677217,0.304019 -0.031181,0.0078 -0.062363,0.01559 -0.093544,0.02339 -0.015592,0.03118 -0.031182,0.06236 -0.046772,0.09355 -0.046772,0.01559 -0.093544,0.03118 -0.1403165,0.04677 -0.015592,0 -0.031181,0 -0.046772,0 0,0.01559 0,0.03118 0,0.04677 -0.023387,0.0078 -0.046772,0.01559 -0.070158,0.02339 -0.038977,0.03118 -0.077954,0.06236 -0.1169305,0.09354"
       inkscape:path-effect="#path-effect12"
       transform="matrix(0.97057454,0,0,0.97057454,0.63845627,0.64683929)" />
    <path
       style="fill:#ffffff;stroke-width:0.264583"
       d="m 8.9568699,13.446998 c -0.2572471,0.148112 -0.5144938,0.296223 -0.6937863,0.409255 -0.1792925,0.113032 -0.2806342,0.190988 -0.3429976,0.249454 -0.062363,0.05847 -0.085746,0.09744 -0.194882,0.222165 -0.1091357,0.124727 -0.3040199,0.335202 -0.4170527,0.502802 -0.1130329,0.167601 -0.1442143,0.292327 -0.1598049,0.38977 -0.015591,0.09744 -0.015591,0.167599 -0.023386,0.226063 -0.0078,0.05846 -0.023385,0.105234 -0.031181,0.222167 -0.0078,0.116932 -0.0078,0.304021 -0.0078,0.60804 0,0.304019 0,0.724968 0.038977,1.040681 0.038977,0.315712 0.1169306,0.526187 0.1987818,0.724968 0.081851,0.198782 0.1675999,0.38587 0.276735,0.584652 0.1091351,0.198782 0.2416563,0.409257 0.4092566,0.580755 0.1676003,0.171498 0.3702796,0.304019 0.5417775,0.378075 0.1714979,0.07406 0.3118144,0.08965 0.4482333,0.105235 0.1364189,0.01559 0.2689399,0.03118 0.463824,0.03898 0.194884,0.0078 0.4521309,0.0078 0.6937871,-0.02339 0.241656,-0.03118 0.467722,-0.09354 0.62363,-0.132521 0.155908,-0.03898 0.241655,-0.05457 0.424846,-0.109133 0.183191,-0.05457 0.463824,-0.148111 0.643115,-0.226064 0.179292,-0.07795 0.25725,-0.140318 0.389771,-0.222169 0.132521,-0.08185 0.31961,-0.183191 0.459928,-0.276737 0.140318,-0.09354 0.233859,-0.179291 0.292326,-0.226065 0.05847,-0.04677 0.08185,-0.05457 0.109132,-0.07795 0.02729,-0.02339 0.05846,-0.06236 0.124724,-0.124725 0.06626,-0.06236 0.1676,-0.148113 0.226066,-0.210477 0.05846,-0.06236 0.07405,-0.101336 0.105233,-0.144211 0.03118,-0.04287 0.07795,-0.08965 0.136419,-0.37028 0.05847,-0.280635 0.128625,-0.795129 0.13642,-1.379781 0.0078,-0.584652 -0.04677,-1.239462 -0.08575,-1.578563 -0.03898,-0.3391 -0.06236,-0.36248 -0.07795,-0.389765 -0.01559,-0.02729 -0.02339,-0.05846 -0.07016,-0.140315 -0.04677,-0.08185 -0.132522,-0.214373 -0.183192,-0.300123 -0.05067,-0.08575 -0.06626,-0.124721 -0.155905,-0.233858 -0.08965,-0.109136 -0.253349,-0.28843 -0.639219,-0.424848 -0.38587,-0.136419 -0.993909,-0.229964 -1.410961,-0.276736 -0.417051,-0.04677 -0.643117,-0.04677 -0.884773,-0.01169 -0.241656,0.03508 -0.4989035,0.105238 -0.7054806,0.190987 -0.206577,0.08575 -0.3624843,0.187088 -0.4560289,0.241656 -0.093545,0.05457 -0.124725,0.06236 -0.1481107,0.08185 -0.023386,0.01949 -0.038975,0.05067 -0.070157,0.07406 -0.031183,0.02339 -0.077955,0.03898 -0.1091369,0.04677 -0.031182,0.0078 -0.046771,0.0078 -0.054567,0.01559 -0.0078,0.0078 -0.0078,0.02339 -0.01949,0.03508 -0.011694,0.01169 -0.035077,0.01949 -0.066259,0.03898 -0.031182,0.01949 -0.070159,0.05067 -0.1091355,0.08185"
       id="path11-7"
       inkscape:original-d="m 8.9568699,13.446998 c -0.257247,0.148112 -0.5144939,0.296223 -0.7717409,0.444335 -0.1013397,0.07795 -0.2026793,0.155908 -0.304019,0.233861 -0.023386,0.03898 -0.046772,0.07795 -0.070158,0.116931 -0.1948841,0.210474 -0.389768,0.420949 -0.5846522,0.631424 -0.031181,0.124726 -0.062363,0.249452 -0.093544,0.374177 0,0.07016 0,0.140317 0,0.210475 -0.015592,0.04677 -0.031181,0.09354 -0.046772,0.140316 0,0.187089 0,0.374178 0,0.561267 0,0.420949 0,0.841898 0,1.262848 0.077954,0.210475 0.1559073,0.42095 0.2338609,0.631424 0.085749,0.187089 0.1714979,0.374177 0.2572467,0.561266 0.1325214,0.210475 0.2650424,0.42095 0.3975635,0.631425 0.2026795,0.132521 0.4053588,0.265042 0.6080381,0.397563 0.1403165,0.01559 0.280633,0.03118 0.4209497,0.04677 0.1325211,0.01559 0.2650421,0.03118 0.3975632,0.04677 0.257247,0 0.5144939,0 0.7717411,0 0.226066,-0.06236 0.452131,-0.124726 0.678197,-0.187088 0.08575,-0.01559 0.171497,-0.03118 0.257247,-0.04677 0.280633,-0.09354 0.561265,-0.187088 0.841898,-0.280633 0.07795,-0.06236 0.155908,-0.124725 0.233861,-0.187088 0.187089,-0.10134 0.374178,-0.20268 0.561266,-0.304019 0.09355,-0.08575 0.187089,-0.171498 0.280633,-0.257247 0.02339,-0.0078 0.04677,-0.01559 0.07016,-0.02339 0.03118,-0.03898 0.06236,-0.07795 0.09354,-0.11693 0.10134,-0.08575 0.202679,-0.171498 0.304019,-0.257247 0.01559,-0.03898 0.03118,-0.07795 0.04677,-0.116931 0.04677,-0.04677 0.09354,-0.09354 0.140317,-0.140316 0.07016,-0.514494 0.140316,-1.028988 0.210474,-1.543482 -0.05457,-0.65481 -0.109135,-1.30962 -0.163702,-1.964431 -0.02339,-0.02339 -0.04677,-0.04677 -0.07016,-0.07016 -0.0078,-0.03118 -0.01559,-0.06236 -0.02339,-0.09354 -0.08575,-0.132521 -0.171498,-0.265043 -0.257247,-0.397564 -0.01559,-0.03898 -0.03118,-0.07795 -0.04677,-0.11693 -0.163703,-0.179293 -0.327405,-0.358587 -0.491108,-0.53788 -0.608038,-0.09354 -1.216076,-0.187089 -1.824114,-0.280633 -0.226065,0 -0.452131,0 -0.678197,0 -0.257246,0.07016 -0.5144937,0.140316 -0.7717406,0.210475 -0.1559073,0.101339 -0.3118144,0.202679 -0.4677217,0.304019 -0.031181,0.0078 -0.062363,0.01559 -0.093544,0.02339 -0.015592,0.03118 -0.031182,0.06236 -0.046772,0.09355 -0.046772,0.01559 -0.093544,0.03118 -0.1403165,0.04677 -0.015592,0 -0.031181,0 -0.046772,0 0,0.01559 0,0.03118 0,0.04677 -0.023387,0.0078 -0.046772,0.01559 -0.070158,0.02339 -0.038977,0.03118 -0.077954,0.06236 -0.1169305,0.09354"
       inkscape:path-effect="#path-effect12-8"
       transform="matrix(-0.96787174,0.0723826,-0.0723826,-0.96787174,33.29217,28.473029)" />
  </g>
  <g
     inkscape:groupmode="layer"
     id="layer4"
     inkscape:label="Mouth">
    <path
       style="fill:#ffffff;stroke-width:0.264583;paint-order:stroke fill markers"
       d="m 13.096875,23.878645 c 2.521394,-1.016405 3.499953,-1.430744 4.255758,-1.644997 0.791788,-0.224453 1.430736,-0.430714 2.085974,-0.583412 1.38457,-0.322663 4.068212,-0.857059 4.068212,-0.857059 l -4.952913,1.894843 z"
       id="path13"
       sodipodi:nodetypes="cssccc" />
    <path
       style="fill:#ffffff;stroke-width:0.264583;paint-order:stroke fill markers"
       d="m 16.109263,22.969138 c 0.0193,2e-6 0.05788,2e-6 0.09095,-0.0083 0.03307,-0.0083 0.06063,-0.0248 0.124022,-0.04961 0.06339,-0.02481 0.162608,-0.05788 0.256315,-0.08544 0.09371,-0.02756 0.181901,-0.04961 0.272852,-0.07166 0.09095,-0.02205 0.184657,-0.0441 0.305924,-0.09095 0.121267,-0.04685 0.270096,-0.118512 0.391363,-0.181902 0.121268,-0.06339 0.214974,-0.118511 0.34451,-0.16812 0.129535,-0.04961 0.2949,-0.09371 0.424435,-0.118512 0.129536,-0.02481 0.223242,-0.03032 0.289388,-0.04134 0.06615,-0.01103 0.104731,-0.02756 0.135048,-0.03583 0.03032,-0.0083 0.05237,-0.0083 0.09371,-0.01929 0.04134,-0.01103 0.101975,-0.03308 0.14056,-0.0441 0.03859,-0.01103 0.05512,-0.01103 0.19017,-0.04685 0.135048,-0.03583 0.388608,-0.107487 0.553972,-0.165365 0.165365,-0.05788 0.242535,-0.101974 0.2949,-0.124023 0.05236,-0.02205 0.07992,-0.02205 0.121266,-0.03032 0.04134,-0.0083 0.09646,-0.0248 0.165364,-0.03583 0.0689,-0.01103 0.151585,-0.01654 0.198437,-0.02481 0.04685,-0.0083 0.05788,-0.01929 0.09922,-0.03583 0.04134,-0.01654 0.112999,-0.03859 0.151585,-0.05512 0.03859,-0.01654 0.0441,-0.02756 0.09095,-0.04134 0.04685,-0.01378 0.135049,-0.03032 0.25356,-0.06339 0.118511,-0.03307 0.26734,-0.08268 0.363802,-0.110244 0.09646,-0.02756 0.14056,-0.03308 0.223242,-0.05788 0.08268,-0.02481 0.20395,-0.0689 0.305924,-0.09646 0.101975,-0.02756 0.184658,-0.03858 0.272852,-0.05787 0.08819,-0.01929 0.181901,-0.04685 0.242535,-0.06063 0.06063,-0.01378 0.08819,-0.01378 0.107485,-0.01929 0.01929,-0.0055 0.03031,-0.01654 0.06063,-0.02756 0.03032,-0.01102 0.07993,-0.02205 0.112999,-0.03307 0.03307,-0.01102 0.04961,-0.02205 0.09922,-0.03858 0.04961,-0.01654 0.132292,-0.03859 0.212218,-0.05512 0.07993,-0.01654 0.157096,-0.02756 0.214973,-0.04134 0.05788,-0.01378 0.09646,-0.03032 0.121267,-0.03859 0.0248,-0.0083 0.03583,-0.0083 0.04134,-0.01103 0.0055,-0.0028 0.0055,-0.0083 0.01378,-1e-6 0.0083,0.0083 0.02481,0.03032 0.03859,0.09922 0.01378,0.0689 0.0248,0.184658 0.03583,0.256315 0.01102,0.07166 0.02205,0.09922 0.03307,0.148827 0.01102,0.04961 0.02205,0.121267 0.03031,0.242534 0.0083,0.121268 0.01378,0.292144 0.02481,0.487826 0.01103,0.195681 0.02756,0.416167 0.02481,0.553971 -0.0028,0.137804 -0.02481,0.192925 -0.04134,0.248047 -0.01654,0.05512 -0.02756,0.110243 -0.07992,0.311437 -0.05236,0.201193 -0.146071,0.548459 -0.281118,0.928797 -0.135048,0.380339 -0.311437,0.79375 -0.435461,1.022505 -0.124023,0.228754 -0.195681,0.272851 -0.242535,0.305925 -0.04685,0.03307 -0.0689,0.05512 -0.09647,0.07166 -0.02756,0.01654 -0.06064,0.02756 -0.124025,0.06063 -0.06339,0.03307 -0.157096,0.08819 -0.250802,0.12678 -0.09371,0.03859 -0.187413,0.06064 -0.248047,0.07993 -0.06063,0.01929 -0.08819,0.03583 -0.173631,0.06339 -0.08544,0.02756 -0.228754,0.06615 -0.325217,0.09371 -0.09646,0.02756 -0.146072,0.0441 -0.272851,0.05237 -0.12678,0.0083 -0.330729,0.0083 -0.496094,-0.01103 -0.165365,-0.01929 -0.292144,-0.05788 -0.410656,-0.09095 -0.118511,-0.03307 -0.228754,-0.06063 -0.327973,-0.09646 -0.09922,-0.03583 -0.187413,-0.07993 -0.253559,-0.104731 -0.06615,-0.02481 -0.110243,-0.03032 -0.214974,-0.06339 -0.104731,-0.03307 -0.270095,-0.09371 -0.374826,-0.126781 -0.104731,-0.03307 -0.148828,-0.03859 -0.234266,-0.07442 -0.08544,-0.03583 -0.212218,-0.101975 -0.338998,-0.165365 -0.12678,-0.06339 -0.253559,-0.124023 -0.34451,-0.179145 -0.09095,-0.05512 -0.146072,-0.104731 -0.261827,-0.179145 -0.115755,-0.07441 -0.292144,-0.173632 -0.396875,-0.239778 -0.104731,-0.06615 -0.137805,-0.09922 -0.170878,-0.121268 -0.03307,-0.02205 -0.06615,-0.03307 -0.101976,-0.05788 -0.03583,-0.0248 -0.07441,-0.06339 -0.151584,-0.124023 -0.07717,-0.06063 -0.192926,-0.143316 -0.261828,-0.201193 -0.0689,-0.05788 -0.09095,-0.09095 -0.132295,-0.132293 -0.04134,-0.04134 -0.101975,-0.09095 -0.151585,-0.15434 -0.04961,-0.06339 -0.08819,-0.140561 -0.121267,-0.192926 -0.03307,-0.05237 -0.06063,-0.07992 -0.08544,-0.124022 -0.02481,-0.0441 -0.04686,-0.10473 -0.07717,-0.195681 -0.03032,-0.09095 -0.0689,-0.212218 -0.08819,-0.27285 -0.01929,-0.06063 -0.01928,-0.06063 1.6e-5,-0.06063 z"
       id="path14"
       sodipodi:nodetypes="aaaaaaaaaaaaaaaaaaaaaaaaaaaaaaaaaaaaaaaaaaaaaaaaaaaaaaaaaaaaaaaaaaaaaaaaaaaaa" />
  </g>
  <g
     inkscape:groupmode="layer"
     id="layer5"
     inkscape:label="Tongue">
    <path
       id="path15"
       style="fill:#b3b3b3;stroke-width:0.264583;paint-order:stroke fill markers"
       d="m 23.674523,21.901505 c -0.119762,0.0033 -0.252411,0.0076 -0.360702,0.01499 -0.162607,0.01103 -0.245288,0.02739 -0.305924,0.03566 -0.06064,0.0083 -0.09922,0.0084 -0.165365,0.02222 -0.06615,0.01378 -0.159852,0.04134 -0.305924,0.07441 -0.146072,0.03307 -0.344683,0.07166 -0.460437,0.107487 -0.115754,0.03583 -0.148826,0.06856 -0.214974,0.104387 -0.06615,0.03583 -0.165368,0.07459 -0.23151,0.09663 -0.06614,0.02205 -0.09922,0.02756 -0.14056,0.04961 -0.04134,0.02205 -0.09095,0.06063 -0.173633,0.115755 -0.08268,0.05512 -0.198265,0.126779 -0.267167,0.173633 -0.0689,0.04685 -0.09095,0.06873 -0.115756,0.08527 -0.02481,0.01654 -0.05271,0.02791 -0.07751,0.04444 -0.02481,0.01654 -0.04685,0.03858 -0.07441,0.05788 -0.02756,0.01929 -0.06046,0.03548 -0.110071,0.08785 -0.04961,0.05236 -0.115583,0.140904 -0.234094,0.309025 -0.118512,0.168121 -0.289732,0.415995 -0.391708,0.573092 -0.101975,0.157097 -0.134875,0.223241 -0.151412,0.264583 -0.01654,0.04134 -0.01654,0.05805 -0.03307,0.08837 -0.01654,0.03032 -0.04944,0.07424 -0.06873,0.101802 -0.01929,0.02756 -0.02498,0.03859 -0.03049,0.05788 -0.0055,0.01929 -0.01119,0.04668 -0.02222,0.06873 -0.01103,0.02205 -0.02739,0.03893 -0.03566,0.06098 -0.0083,0.02205 -0.0084,0.04961 -0.01395,0.07441 -0.0055,0.02481 -0.01654,0.04651 -0.03307,0.112655 -0.01654,0.06614 -0.03858,0.176733 -0.04134,0.408243 -0.0019,0.15639 0.006,0.365481 0.0217,0.546737 0.0032,0.0012 0.006,0.0019 0.0093,0.0031 0.06615,0.0248 0.154512,0.06907 0.253732,0.104903 0.09922,0.03583 0.209634,0.06357 0.328145,0.09663 0.118512,0.03307 0.244946,0.07166 0.410311,0.09095 0.165365,0.01933 0.369314,0.01915 0.496094,0.01085 0.126778,-0.0083 0.176391,-0.02463 0.272851,-0.05219 0.09646,-0.02756 0.240122,-0.06649 0.325562,-0.09405 0.08544,-0.02756 0.113003,-0.04376 0.173632,-0.06304 0.06063,-0.01929 0.154337,-0.04151 0.248047,-0.0801 0.09371,-0.03859 0.187241,-0.09405 0.250631,-0.127124 0.06339,-0.03307 0.09646,-0.04392 0.124023,-0.06046 0.02757,-0.01654 0.04978,-0.03824 0.09664,-0.07131 0.04685,-0.03307 0.11834,-0.07769 0.242363,-0.306441 0.124024,-0.228755 0.300584,-0.641821 0.435632,-1.02216 0.135047,-0.380337 0.22876,-0.727949 0.28112,-0.929142 0.05236,-0.201194 0.06304,-0.255972 0.07958,-0.311092 0.01653,-0.05512 0.03854,-0.110243 0.04134,-0.248047 0.0027,-0.137804 -0.01377,-0.35829 -0.02481,-0.553971 -0.0028,-0.04975 -0.004,-0.07789 -0.0062,-0.124024 z" />
  </g>
  <metadata
     id="metadata1">
    <rdf:RDF>
      <cc:Work
         rdf:about="">
        <dc:creator>
          <cc:Agent>
            <dc:title>Nemonuri</dc:title>
          </cc:Agent>
        </dc:creator>
        <cc:license
           rdf:resource="http://creativecommons.org/licenses/by/4.0/" />
      </cc:Work>
      <cc:License
         rdf:about="http://creativecommons.org/licenses/by/4.0/">
        <cc:permits
           rdf:resource="http://creativecommons.org/ns#Reproduction" />
        <cc:permits
           rdf:resource="http://creativecommons.org/ns#Distribution" />
        <cc:requires
           rdf:resource="http://creativecommons.org/ns#Notice" />
        <cc:requires
           rdf:resource="http://creativecommons.org/ns#Attribution" />
        <cc:permits
           rdf:resource="http://creativecommons.org/ns#DerivativeWorks" />
      </cc:License>
    </rdf:RDF>
  </metadata>
</svg>
